<?xml version="1.0" encoding="UTF-8"?>
<!DOCTYPE svg PUBLIC "-//W3C//DTD SVG 1.1//EN" "http://www.w3.org/Graphics/SVG/1.1/DTD/svg11.dtd">
<svg version="1.2" width="20.12mm" height="16.11mm" viewBox="9886 14286 2012 1611" preserveAspectRatio="xMidYMid" fill-rule="evenodd" stroke-width="28.222" stroke-linejoin="round" xmlns="http://www.w3.org/2000/svg" xmlns:ooo="http://xml.openoffice.org/svg/export" xmlns:xlink="http://www.w3.org/1999/xlink" xmlns:presentation="http://sun.com/xmlns/staroffice/presentation" xmlns:smil="http://www.w3.org/2001/SMIL20/" xmlns:anim="urn:oasis:names:tc:opendocument:xmlns:animation:1.0" xml:space="preserve">
 <defs class="ClipPathGroup">
  <clipPath id="presentation_clip_path" clipPathUnits="userSpaceOnUse">
   <rect x="9886" y="14286" width="2012" height="1611"/>
  </clipPath>
  <clipPath id="presentation_clip_path_shrink" clipPathUnits="userSpaceOnUse">
   <rect x="9888" y="14287" width="2008" height="1608"/>
  </clipPath>
 </defs>
 <defs class="TextShapeIndex">
  <g ooo:slide="id1" ooo:id-list="id3 id4 id5 id6"/>
 </defs>
 <defs class="EmbeddedBulletChars">
  <g id="bullet-char-template-57356" transform="scale(0.00048828125,-0.00048828125)">
   <path d="M 580,1141 L 1163,571 580,0 -4,571 580,1141 Z"/>
  </g>
  <g id="bullet-char-template-57354" transform="scale(0.00048828125,-0.00048828125)">
   <path d="M 8,1128 L 1137,1128 1137,0 8,0 8,1128 Z"/>
  </g>
  <g id="bullet-char-template-10146" transform="scale(0.00048828125,-0.00048828125)">
   <path d="M 174,0 L 602,739 174,1481 1456,739 174,0 Z M 1358,739 L 309,1346 659,739 1358,739 Z"/>
  </g>
  <g id="bullet-char-template-10132" transform="scale(0.00048828125,-0.00048828125)">
   <path d="M 2015,739 L 1276,0 717,0 1260,543 174,543 174,936 1260,936 717,1481 1274,1481 2015,739 Z"/>
  </g>
  <g id="bullet-char-template-10007" transform="scale(0.00048828125,-0.00048828125)">
   <path d="M 0,-2 C -7,14 -16,27 -25,37 L 356,567 C 262,823 215,952 215,954 215,979 228,992 255,992 264,992 276,990 289,987 310,991 331,999 354,1012 L 381,999 492,748 772,1049 836,1024 860,1049 C 881,1039 901,1025 922,1006 886,937 835,863 770,784 769,783 710,716 594,584 L 774,223 C 774,196 753,168 711,139 L 727,119 C 717,90 699,76 672,76 641,76 570,178 457,381 L 164,-76 C 142,-110 111,-127 72,-127 30,-127 9,-110 8,-76 1,-67 -2,-52 -2,-32 -2,-23 -1,-13 0,-2 Z"/>
  </g>
  <g id="bullet-char-template-10004" transform="scale(0.00048828125,-0.00048828125)">
   <path d="M 285,-33 C 182,-33 111,30 74,156 52,228 41,333 41,471 41,549 55,616 82,672 116,743 169,778 240,778 293,778 328,747 346,684 L 369,508 C 377,444 397,411 428,410 L 1163,1116 C 1174,1127 1196,1133 1229,1133 1271,1133 1292,1118 1292,1087 L 1292,965 C 1292,929 1282,901 1262,881 L 442,47 C 390,-6 338,-33 285,-33 Z"/>
  </g>
  <g id="bullet-char-template-9679" transform="scale(0.00048828125,-0.00048828125)">
   <path d="M 813,0 C 632,0 489,54 383,161 276,268 223,411 223,592 223,773 276,916 383,1023 489,1130 632,1184 813,1184 992,1184 1136,1130 1245,1023 1353,916 1407,772 1407,592 1407,412 1353,268 1245,161 1136,54 992,0 813,0 Z"/>
  </g>
  <g id="bullet-char-template-8226" transform="scale(0.00048828125,-0.00048828125)">
   <path d="M 346,457 C 273,457 209,483 155,535 101,586 74,649 74,723 74,796 101,859 155,911 209,963 273,989 346,989 419,989 480,963 531,910 582,859 608,796 608,723 608,648 583,586 532,535 482,483 420,457 346,457 Z"/>
  </g>
  <g id="bullet-char-template-8211" transform="scale(0.00048828125,-0.00048828125)">
   <path d="M -4,459 L 1135,459 1135,606 -4,606 -4,459 Z"/>
  </g>
  <g id="bullet-char-template-61548" transform="scale(0.00048828125,-0.00048828125)">
   <path d="M 173,740 C 173,903 231,1043 346,1159 462,1274 601,1332 765,1332 928,1332 1067,1274 1183,1159 1299,1043 1357,903 1357,740 1357,577 1299,437 1183,322 1067,206 928,148 765,148 601,148 462,206 346,322 231,437 173,577 173,740 Z"/>
  </g>
 </defs>
 <defs class="TextEmbeddedBitmaps"/>
 <g class="SlideGroup">
  <g>
   <g id="container-id1">
    <g id="id1" class="Slide" clip-path="url(#presentation_clip_path)">
     <g class="Page">
      <g class="Group">
       <g class="com.sun.star.drawing.PolyPolygonShape">
        <g id="id3">
         <rect class="BoundingBox" stroke="none" fill="none" x="9896" y="14603" width="1997" height="976"/>
         <path fill="rgb(196,121,37)" fill-opacity="0.502" stroke="rgb(255,255,255)" stroke-opacity="0.502" d="M 9922,14634 L 9906,15568 11866,15554 11882,14613 9924,14613 9922,14634 Z"/>
         <path fill="none" stroke="rgb(0,0,0)" stroke-width="19" stroke-linejoin="round" d="M 9922,14634 L 9906,15568 11866,15554 11882,14613 9924,14613 9922,14634 Z"/>
        </g>
       </g>
       <g class="com.sun.star.drawing.EllipseShape">
        <g id="id4">
         <rect class="BoundingBox" stroke="none" fill="none" x="9914" y="14285" width="1985" height="674"/>
         <path fill="rgb(196,121,37)" stroke="none" d="M 10906,14948 C 10725,14948 10572,14934 10415,14904 10258,14874 10146,14837 10056,14785 9965,14733 9924,14682 9924,14622 9924,14561 9965,14510 10056,14458 10146,14406 10258,14369 10415,14339 10572,14309 10725,14295 10906,14295 11087,14295 11240,14309 11397,14339 11554,14369 11666,14406 11756,14458 11847,14510 11888,14561 11888,14622 11888,14682 11847,14733 11756,14785 11666,14837 11554,14874 11397,14904 11240,14934 11087,14948 10906,14948 L 10906,14948 Z"/>
         <path fill="none" stroke="rgb(0,0,0)" stroke-width="19" stroke-linejoin="round" d="M 10906,14948 C 10725,14948 10572,14934 10415,14904 10258,14874 10146,14837 10056,14785 9965,14733 9924,14682 9924,14622 9924,14561 9965,14510 10056,14458 10146,14406 10258,14369 10415,14339 10572,14309 10725,14295 10906,14295 11087,14295 11240,14309 11397,14339 11554,14369 11666,14406 11756,14458 11847,14510 11888,14561 11888,14622 11888,14682 11847,14733 11756,14785 11666,14837 11554,14874 11397,14904 11240,14934 11087,14948 10906,14948 L 10906,14948 Z"/>
        </g>
       </g>
       <g class="com.sun.star.drawing.EllipseShape">
        <g id="id5">
         <rect class="BoundingBox" stroke="none" fill="none" x="9900" y="15222" width="1990" height="676"/>
         <path fill="rgb(196,121,37)" stroke="none" d="M 10895,15887 C 10713,15887 10559,15873 10402,15843 10245,15813 10133,15775 10042,15723 9951,15671 9910,15620 9910,15560 9910,15499 9951,15448 10042,15396 10133,15344 10245,15306 10402,15276 10559,15246 10713,15232 10895,15232 11076,15232 11230,15246 11387,15276 11544,15306 11656,15344 11747,15396 11838,15448 11879,15499 11879,15560 11879,15620 11838,15671 11747,15723 11656,15775 11544,15813 11387,15843 11230,15873 11076,15887 10895,15887 L 10895,15887 Z"/>
         <path fill="none" stroke="rgb(0,0,0)" stroke-width="19" stroke-linejoin="round" d="M 10914,15887 C 10908,15887 10901,15887 10895,15887 L 10895,15887 C 10885,15887 10876,15887 10866,15887"/>
         <path fill="none" stroke="rgb(0,0,0)" stroke-width="19" stroke-linejoin="round" d="M 10838,15887 C 10829,15886 10820,15886 10810,15886"/>
         <path fill="none" stroke="rgb(0,0,0)" stroke-width="19" stroke-linejoin="round" d="M 10782,15885 C 10773,15885 10764,15884 10754,15884"/>
         <path fill="none" stroke="rgb(0,0,0)" stroke-width="19" stroke-linejoin="round" d="M 10726,15883 C 10717,15882 10708,15882 10699,15881"/>
         <path fill="none" stroke="rgb(0,0,0)" stroke-width="19" stroke-linejoin="round" d="M 10671,15879 C 10661,15878 10652,15877 10643,15877"/>
         <path fill="none" stroke="rgb(0,0,0)" stroke-width="19" stroke-linejoin="round" d="M 10615,15874 C 10606,15873 10596,15872 10587,15871"/>
         <path fill="none" stroke="rgb(0,0,0)" stroke-width="19" stroke-linejoin="round" d="M 10559,15868 C 10550,15867 10541,15866 10531,15864"/>
         <path fill="none" stroke="rgb(0,0,0)" stroke-width="19" stroke-linejoin="round" d="M 10504,15860 C 10495,15859 10485,15858 10476,15856"/>
         <path fill="none" stroke="rgb(0,0,0)" stroke-width="19" stroke-linejoin="round" d="M 10448,15852 C 10439,15850 10430,15848 10421,15847"/>
         <path fill="none" stroke="rgb(0,0,0)" stroke-width="19" stroke-linejoin="round" d="M 10393,15841 C 10384,15840 10375,15838 10366,15836"/>
         <path fill="none" stroke="rgb(0,0,0)" stroke-width="19" stroke-linejoin="round" d="M 10338,15830 C 10329,15828 10320,15826 10311,15824"/>
         <path fill="none" stroke="rgb(0,0,0)" stroke-width="19" stroke-linejoin="round" d="M 10284,15817 C 10275,15814 10266,15812 10257,15810"/>
         <path fill="none" stroke="rgb(0,0,0)" stroke-width="19" stroke-linejoin="round" d="M 10230,15802 C 10221,15799 10212,15796 10203,15793"/>
         <path fill="none" stroke="rgb(0,0,0)" stroke-width="19" stroke-linejoin="round" d="M 10177,15784 C 10168,15781 10159,15778 10151,15775"/>
         <path fill="none" stroke="rgb(0,0,0)" stroke-width="19" stroke-linejoin="round" d="M 10125,15764 C 10116,15761 10107,15757 10099,15753"/>
         <path fill="none" stroke="rgb(0,0,0)" stroke-width="19" stroke-linejoin="round" d="M 10074,15741 C 10065,15736 10057,15732 10049,15727"/>
         <path fill="none" stroke="rgb(0,0,0)" stroke-width="19" stroke-linejoin="round" d="M 10025,15713 C 10017,15708 10009,15703 10001,15698"/>
         <path fill="none" stroke="rgb(0,0,0)" stroke-width="19" stroke-linejoin="round" d="M 9979,15681 C 9972,15675 9965,15669 9958,15662"/>
         <path fill="none" stroke="rgb(0,0,0)" stroke-width="19" stroke-linejoin="round" d="M 9940,15642 C 9934,15634 9929,15626 9925,15618"/>
         <path fill="none" stroke="rgb(0,0,0)" stroke-width="19" stroke-linejoin="round" d="M 9914,15592 C 9912,15583 9910,15574 9910,15564"/>
         <path fill="none" stroke="rgb(0,0,0)" stroke-width="19" stroke-linejoin="round" d="M 9912,15537 C 9914,15527 9916,15519 9920,15510"/>
         <path fill="none" stroke="rgb(0,0,0)" stroke-width="19" stroke-linejoin="round" d="M 9934,15486 C 9939,15478 9945,15471 9951,15464"/>
         <path fill="none" stroke="rgb(0,0,0)" stroke-width="19" stroke-linejoin="round" d="M 9972,15444 C 9978,15438 9986,15433 9994,15427"/>
         <path fill="none" stroke="rgb(0,0,0)" stroke-width="19" stroke-linejoin="round" d="M 10017,15411 C 10024,15406 10032,15401 10041,15396"/>
         <path fill="none" stroke="rgb(0,0,0)" stroke-width="19" stroke-linejoin="round" d="M 10065,15383 C 10073,15379 10082,15374 10090,15370"/>
         <path fill="none" stroke="rgb(0,0,0)" stroke-width="19" stroke-linejoin="round" d="M 10116,15359 C 10124,15355 10133,15351 10141,15348"/>
         <path fill="none" stroke="rgb(0,0,0)" stroke-width="19" stroke-linejoin="round" d="M 10168,15338 C 10176,15335 10185,15332 10194,15329"/>
         <path fill="none" stroke="rgb(0,0,0)" stroke-width="19" stroke-linejoin="round" d="M 10221,15320 C 10229,15317 10238,15315 10247,15312"/>
         <path fill="none" stroke="rgb(0,0,0)" stroke-width="19" stroke-linejoin="round" d="M 10274,15305 C 10283,15302 10292,15300 10301,15298"/>
         <path fill="none" stroke="rgb(0,0,0)" stroke-width="19" stroke-linejoin="round" d="M 10329,15291 C 10338,15289 10347,15287 10356,15285"/>
         <path fill="none" stroke="rgb(0,0,0)" stroke-width="19" stroke-linejoin="round" d="M 10383,15280 C 10390,15278 10396,15277 10402,15276 10405,15275 10408,15275 10411,15274"/>
         <path fill="none" stroke="rgb(0,0,0)" stroke-width="19" stroke-linejoin="round" d="M 10439,15269 C 10448,15268 10457,15266 10466,15264"/>
         <path fill="none" stroke="rgb(0,0,0)" stroke-width="19" stroke-linejoin="round" d="M 10494,15260 C 10503,15259 10512,15257 10522,15256"/>
         <path fill="none" stroke="rgb(0,0,0)" stroke-width="19" stroke-linejoin="round" d="M 10549,15252 C 10559,15251 10568,15250 10577,15249"/>
         <path fill="none" stroke="rgb(0,0,0)" stroke-width="19" stroke-linejoin="round" d="M 10605,15246 C 10614,15245 10624,15244 10633,15243"/>
         <path fill="none" stroke="rgb(0,0,0)" stroke-width="19" stroke-linejoin="round" d="M 10661,15241 C 10670,15240 10679,15239 10689,15239"/>
         <path fill="none" stroke="rgb(0,0,0)" stroke-width="19" stroke-linejoin="round" d="M 10717,15237 C 10726,15236 10735,15236 10745,15235"/>
         <path fill="none" stroke="rgb(0,0,0)" stroke-width="19" stroke-linejoin="round" d="M 10773,15234 C 10782,15234 10791,15234 10800,15233"/>
         <path fill="none" stroke="rgb(0,0,0)" stroke-width="19" stroke-linejoin="round" d="M 10828,15233 C 10838,15232 10847,15232 10856,15232"/>
         <path fill="none" stroke="rgb(0,0,0)" stroke-width="19" stroke-linejoin="round" d="M 10884,15232 C 10888,15232 10891,15232 10895,15232 10901,15232 10907,15232 10913,15232"/>
         <path fill="none" stroke="rgb(0,0,0)" stroke-width="19" stroke-linejoin="round" d="M 10941,15232 C 10950,15232 10959,15233 10969,15233"/>
         <path fill="none" stroke="rgb(0,0,0)" stroke-width="19" stroke-linejoin="round" d="M 10997,15234 C 11006,15234 11015,15234 11025,15235"/>
         <path fill="none" stroke="rgb(0,0,0)" stroke-width="19" stroke-linejoin="round" d="M 11053,15236 C 11062,15236 11071,15237 11081,15237"/>
         <path fill="none" stroke="rgb(0,0,0)" stroke-width="19" stroke-linejoin="round" d="M 11108,15239 C 11118,15240 11127,15241 11136,15241"/>
         <path fill="none" stroke="rgb(0,0,0)" stroke-width="19" stroke-linejoin="round" d="M 11164,15244 C 11174,15245 11183,15246 11192,15247"/>
         <path fill="none" stroke="rgb(0,0,0)" stroke-width="19" stroke-linejoin="round" d="M 11220,15250 C 11229,15251 11238,15252 11248,15253"/>
         <path fill="none" stroke="rgb(0,0,0)" stroke-width="19" stroke-linejoin="round" d="M 11275,15257 C 11285,15259 11294,15260 11303,15261"/>
         <path fill="none" stroke="rgb(0,0,0)" stroke-width="19" stroke-linejoin="round" d="M 11331,15266 C 11340,15267 11349,15269 11358,15271"/>
         <path fill="none" stroke="rgb(0,0,0)" stroke-width="19" stroke-linejoin="round" d="M 11386,15276 C 11386,15276 11386,15276 11387,15276 11396,15278 11405,15279 11414,15281"/>
         <path fill="none" stroke="rgb(0,0,0)" stroke-width="19" stroke-linejoin="round" d="M 11441,15287 C 11450,15289 11459,15291 11468,15293"/>
         <path fill="none" stroke="rgb(0,0,0)" stroke-width="19" stroke-linejoin="round" d="M 11496,15300 C 11505,15302 11514,15304 11523,15307"/>
         <path fill="none" stroke="rgb(0,0,0)" stroke-width="19" stroke-linejoin="round" d="M 11549,15314 C 11559,15317 11568,15320 11576,15323"/>
         <path fill="none" stroke="rgb(0,0,0)" stroke-width="19" stroke-linejoin="round" d="M 11603,15331 C 11612,15334 11621,15338 11629,15341"/>
         <path fill="none" stroke="rgb(0,0,0)" stroke-width="19" stroke-linejoin="round" d="M 11655,15351 C 11664,15355 11673,15358 11681,15362"/>
         <path fill="none" stroke="rgb(0,0,0)" stroke-width="19" stroke-linejoin="round" d="M 11706,15374 C 11715,15378 11723,15382 11731,15387"/>
         <path fill="none" stroke="rgb(0,0,0)" stroke-width="19" stroke-linejoin="round" d="M 11756,15401 C 11764,15406 11772,15411 11779,15416"/>
         <path fill="none" stroke="rgb(0,0,0)" stroke-width="19" stroke-linejoin="round" d="M 11802,15432 C 11810,15438 11817,15444 11824,15450"/>
         <path fill="none" stroke="rgb(0,0,0)" stroke-width="19" stroke-linejoin="round" d="M 11843,15470 C 11849,15477 11855,15485 11860,15492"/>
         <path fill="none" stroke="rgb(0,0,0)" stroke-width="19" stroke-linejoin="round" d="M 11872,15518 C 11875,15526 11877,15535 11878,15545"/>
         <path fill="none" stroke="rgb(0,0,0)" stroke-width="19" stroke-linejoin="round" d="M 11878,15573 C 11877,15582 11875,15591 11872,15600"/>
         <path fill="none" stroke="rgb(0,0,0)" stroke-width="19" stroke-linejoin="round" d="M 11860,15625 C 11856,15633 11850,15640 11844,15648"/>
         <path fill="none" stroke="rgb(0,0,0)" stroke-width="19" stroke-linejoin="round" d="M 11825,15668 C 11818,15674 11811,15680 11803,15686"/>
         <path fill="none" stroke="rgb(0,0,0)" stroke-width="19" stroke-linejoin="round" d="M 11781,15702 C 11773,15707 11765,15712 11757,15717"/>
         <path fill="none" stroke="rgb(0,0,0)" stroke-width="19" stroke-linejoin="round" d="M 11733,15731 C 11725,15736 11716,15740 11708,15744"/>
         <path fill="none" stroke="rgb(0,0,0)" stroke-width="19" stroke-linejoin="round" d="M 11682,15756 C 11674,15760 11666,15764 11657,15767"/>
         <path fill="none" stroke="rgb(0,0,0)" stroke-width="19" stroke-linejoin="round" d="M 11631,15778 C 11622,15781 11613,15784 11604,15787"/>
         <path fill="none" stroke="rgb(0,0,0)" stroke-width="19" stroke-linejoin="round" d="M 11578,15796 C 11569,15799 11560,15802 11551,15804"/>
         <path fill="none" stroke="rgb(0,0,0)" stroke-width="19" stroke-linejoin="round" d="M 11524,15812 C 11515,15814 11506,15817 11497,15819"/>
         <path fill="none" stroke="rgb(0,0,0)" stroke-width="19" stroke-linejoin="round" d="M 11470,15825 C 11461,15828 11452,15830 11443,15832"/>
         <path fill="none" stroke="rgb(0,0,0)" stroke-width="19" stroke-linejoin="round" d="M 11415,15837 C 11406,15839 11397,15841 11388,15843"/>
         <path fill="none" stroke="rgb(0,0,0)" stroke-width="19" stroke-linejoin="round" d="M 11360,15848 C 11351,15850 11342,15851 11332,15853"/>
         <path fill="none" stroke="rgb(0,0,0)" stroke-width="19" stroke-linejoin="round" d="M 11305,15857 C 11296,15859 11286,15860 11277,15862"/>
         <path fill="none" stroke="rgb(0,0,0)" stroke-width="19" stroke-linejoin="round" d="M 11249,15865 C 11240,15867 11231,15868 11222,15869"/>
         <path fill="none" stroke="rgb(0,0,0)" stroke-width="19" stroke-linejoin="round" d="M 11194,15872 C 11185,15873 11175,15874 11166,15875"/>
         <path fill="none" stroke="rgb(0,0,0)" stroke-width="19" stroke-linejoin="round" d="M 11138,15877 C 11129,15878 11120,15879 11110,15880"/>
         <path fill="none" stroke="rgb(0,0,0)" stroke-width="19" stroke-linejoin="round" d="M 11082,15881 C 11073,15882 11064,15883 11054,15883"/>
         <path fill="none" stroke="rgb(0,0,0)" stroke-width="19" stroke-linejoin="round" d="M 11026,15884 C 11017,15885 11008,15885 10998,15885"/>
         <path fill="none" stroke="rgb(0,0,0)" stroke-width="19" stroke-linejoin="round" d="M 10970,15886 C 10961,15886 10952,15887 10942,15887"/>
        </g>
       </g>
       <g class="com.sun.star.drawing.EllipseShape">
        <g id="id6">
         <rect class="BoundingBox" stroke="none" fill="none" x="9885" y="15542" width="1999" height="352"/>
         <path fill="none" stroke="rgb(0,0,0)" stroke-width="19" stroke-linejoin="round" d="M 11873,15552 C 11873,15613 11832,15665 11740,15718 11649,15770 11536,15808 11379,15839 11221,15869 11066,15883 10884,15883 10702,15883 10547,15869 10390,15839 10232,15808 10119,15770 10028,15718 9941,15668 9900,15619 9895,15561"/>
        </g>
       </g>
      </g>
     </g>
    </g>
   </g>
  </g>
 </g>
</svg>