<?xml version="1.0" encoding="UTF-8"?>
<!DOCTYPE svg PUBLIC "-//W3C//DTD SVG 1.1//EN" "http://www.w3.org/Graphics/SVG/1.1/DTD/svg11.dtd">
<svg version="1.2" width="23.52mm" height="11.86mm" viewBox="9716 14499 2352 1186" preserveAspectRatio="xMidYMid" fill-rule="evenodd" stroke-width="28.222" stroke-linejoin="round" xmlns="http://www.w3.org/2000/svg" xmlns:ooo="http://xml.openoffice.org/svg/export" xmlns:xlink="http://www.w3.org/1999/xlink" xmlns:presentation="http://sun.com/xmlns/staroffice/presentation" xmlns:smil="http://www.w3.org/2001/SMIL20/" xmlns:anim="urn:oasis:names:tc:opendocument:xmlns:animation:1.0" xml:space="preserve">
 <defs class="ClipPathGroup">
  <clipPath id="presentation_clip_path" clipPathUnits="userSpaceOnUse">
   <rect x="9716" y="14499" width="2352" height="1186"/>
  </clipPath>
  <clipPath id="presentation_clip_path_shrink" clipPathUnits="userSpaceOnUse">
   <rect x="9718" y="14500" width="2348" height="1184"/>
  </clipPath>
 </defs>
 <defs class="TextShapeIndex">
  <g ooo:slide="id1" ooo:id-list="id3 id4 id5 id6 id7 id8 id9 id10 id11 id12 id13 id14 id15"/>
 </defs>
 <defs class="EmbeddedBulletChars">
  <g id="bullet-char-template-57356" transform="scale(0.00048828125,-0.00048828125)">
   <path d="M 580,1141 L 1163,571 580,0 -4,571 580,1141 Z"/>
  </g>
  <g id="bullet-char-template-57354" transform="scale(0.00048828125,-0.00048828125)">
   <path d="M 8,1128 L 1137,1128 1137,0 8,0 8,1128 Z"/>
  </g>
  <g id="bullet-char-template-10146" transform="scale(0.00048828125,-0.00048828125)">
   <path d="M 174,0 L 602,739 174,1481 1456,739 174,0 Z M 1358,739 L 309,1346 659,739 1358,739 Z"/>
  </g>
  <g id="bullet-char-template-10132" transform="scale(0.00048828125,-0.00048828125)">
   <path d="M 2015,739 L 1276,0 717,0 1260,543 174,543 174,936 1260,936 717,1481 1274,1481 2015,739 Z"/>
  </g>
  <g id="bullet-char-template-10007" transform="scale(0.00048828125,-0.00048828125)">
   <path d="M 0,-2 C -7,14 -16,27 -25,37 L 356,567 C 262,823 215,952 215,954 215,979 228,992 255,992 264,992 276,990 289,987 310,991 331,999 354,1012 L 381,999 492,748 772,1049 836,1024 860,1049 C 881,1039 901,1025 922,1006 886,937 835,863 770,784 769,783 710,716 594,584 L 774,223 C 774,196 753,168 711,139 L 727,119 C 717,90 699,76 672,76 641,76 570,178 457,381 L 164,-76 C 142,-110 111,-127 72,-127 30,-127 9,-110 8,-76 1,-67 -2,-52 -2,-32 -2,-23 -1,-13 0,-2 Z"/>
  </g>
  <g id="bullet-char-template-10004" transform="scale(0.00048828125,-0.00048828125)">
   <path d="M 285,-33 C 182,-33 111,30 74,156 52,228 41,333 41,471 41,549 55,616 82,672 116,743 169,778 240,778 293,778 328,747 346,684 L 369,508 C 377,444 397,411 428,410 L 1163,1116 C 1174,1127 1196,1133 1229,1133 1271,1133 1292,1118 1292,1087 L 1292,965 C 1292,929 1282,901 1262,881 L 442,47 C 390,-6 338,-33 285,-33 Z"/>
  </g>
  <g id="bullet-char-template-9679" transform="scale(0.00048828125,-0.00048828125)">
   <path d="M 813,0 C 632,0 489,54 383,161 276,268 223,411 223,592 223,773 276,916 383,1023 489,1130 632,1184 813,1184 992,1184 1136,1130 1245,1023 1353,916 1407,772 1407,592 1407,412 1353,268 1245,161 1136,54 992,0 813,0 Z"/>
  </g>
  <g id="bullet-char-template-8226" transform="scale(0.00048828125,-0.00048828125)">
   <path d="M 346,457 C 273,457 209,483 155,535 101,586 74,649 74,723 74,796 101,859 155,911 209,963 273,989 346,989 419,989 480,963 531,910 582,859 608,796 608,723 608,648 583,586 532,535 482,483 420,457 346,457 Z"/>
  </g>
  <g id="bullet-char-template-8211" transform="scale(0.00048828125,-0.00048828125)">
   <path d="M -4,459 L 1135,459 1135,606 -4,606 -4,459 Z"/>
  </g>
  <g id="bullet-char-template-61548" transform="scale(0.00048828125,-0.00048828125)">
   <path d="M 173,740 C 173,903 231,1043 346,1159 462,1274 601,1332 765,1332 928,1332 1067,1274 1183,1159 1299,1043 1357,903 1357,740 1357,577 1299,437 1183,322 1067,206 928,148 765,148 601,148 462,206 346,322 231,437 173,577 173,740 Z"/>
  </g>
 </defs>
 <defs class="TextEmbeddedBitmaps"/>
 <g class="SlideGroup">
  <g>
   <g id="container-id1">
    <g id="id1" class="Slide" clip-path="url(#presentation_clip_path)">
     <g class="Page">
      <g class="Group">
       <g class="com.sun.star.drawing.PolyPolygonShape">
        <g id="id3">
         <rect class="BoundingBox" stroke="none" fill="none" x="9715" y="14498" width="2354" height="1188"/>
         <path fill="rgb(214,132,191)" fill-opacity="0.502" stroke="rgb(255,255,255)" stroke-opacity="0.502" d="M 9725,14897 L 10890,14508 12058,14897 12058,15286 10890,15675 9725,15286 9725,14897 Z"/>
         <path fill="none" stroke="rgb(255,255,255)" stroke-width="19" stroke-linejoin="round" d="M 9725,14897 L 10890,14508 12058,14897 12058,15286 10890,15675 9725,15286 9725,14897 Z"/>
        </g>
       </g>
       <g class="com.sun.star.drawing.LineShape">
        <g id="id4">
         <rect class="BoundingBox" stroke="none" fill="none" x="10878" y="15275" width="1190" height="410"/>
         <path fill="none" stroke="rgb(0,0,0)" stroke-width="19" stroke-linejoin="round" d="M 10888,15674 L 12057,15285"/>
        </g>
       </g>
       <g class="com.sun.star.drawing.LineShape">
        <g id="id5">
         <rect class="BoundingBox" stroke="none" fill="none" x="9716" y="14498" width="1188" height="410"/>
         <path fill="none" stroke="rgb(0,0,0)" stroke-width="19" stroke-linejoin="round" d="M 9726,14897 L 10893,14508"/>
        </g>
       </g>
       <g class="com.sun.star.drawing.LineShape">
        <g id="id6">
         <rect class="BoundingBox" stroke="none" fill="none" x="10878" y="14498" width="21" height="410"/>
         <path fill="none" stroke="rgb(0,0,0)" stroke-width="19" stroke-linejoin="round" d="M 10888,14508 L 10888,14535"/>
         <path fill="none" stroke="rgb(0,0,0)" stroke-width="19" stroke-linejoin="round" d="M 10888,14562 L 10888,14589"/>
         <path fill="none" stroke="rgb(0,0,0)" stroke-width="19" stroke-linejoin="round" d="M 10888,14616 L 10888,14643"/>
         <path fill="none" stroke="rgb(0,0,0)" stroke-width="19" stroke-linejoin="round" d="M 10888,14670 L 10888,14697"/>
         <path fill="none" stroke="rgb(0,0,0)" stroke-width="19" stroke-linejoin="round" d="M 10888,14724 L 10888,14751"/>
         <path fill="none" stroke="rgb(0,0,0)" stroke-width="19" stroke-linejoin="round" d="M 10888,14778 L 10888,14804"/>
         <path fill="none" stroke="rgb(0,0,0)" stroke-width="19" stroke-linejoin="round" d="M 10888,14831 L 10888,14858"/>
         <path fill="none" stroke="rgb(0,0,0)" stroke-width="19" stroke-linejoin="round" d="M 10888,14885 L 10888,14897"/>
        </g>
       </g>
       <g class="com.sun.star.drawing.LineShape">
        <g id="id7">
         <rect class="BoundingBox" stroke="none" fill="none" x="10878" y="14498" width="1190" height="410"/>
         <path fill="none" stroke="rgb(0,0,0)" stroke-width="19" stroke-linejoin="round" d="M 10888,14508 L 12057,14897"/>
        </g>
       </g>
       <g class="com.sun.star.drawing.LineShape">
        <g id="id8">
         <rect class="BoundingBox" stroke="none" fill="none" x="9716" y="14892" width="21" height="408"/>
         <path fill="none" stroke="rgb(0,0,0)" stroke-width="19" stroke-linejoin="round" d="M 9726,15289 L 9726,14902"/>
        </g>
       </g>
       <g class="com.sun.star.drawing.LineShape">
        <g id="id9">
         <rect class="BoundingBox" stroke="none" fill="none" x="12048" y="14892" width="21" height="408"/>
         <path fill="none" stroke="rgb(0,0,0)" stroke-width="19" stroke-linejoin="round" d="M 12058,15289 L 12058,14902"/>
        </g>
       </g>
       <g class="com.sun.star.drawing.LineShape">
        <g id="id10">
         <rect class="BoundingBox" stroke="none" fill="none" x="9716" y="15275" width="1188" height="410"/>
         <path fill="none" stroke="rgb(0,0,0)" stroke-width="19" stroke-linejoin="round" d="M 9726,15285 L 10893,15674"/>
        </g>
       </g>
       <g class="com.sun.star.drawing.LineShape">
        <g id="id11">
         <rect class="BoundingBox" stroke="none" fill="none" x="10878" y="14892" width="1190" height="408"/>
         <path fill="none" stroke="rgb(0,0,0)" stroke-width="19" stroke-linejoin="round" d="M 10888,15289 L 12057,14902"/>
        </g>
       </g>
       <g class="com.sun.star.drawing.LineShape">
        <g id="id12">
         <rect class="BoundingBox" stroke="none" fill="none" x="10878" y="15275" width="21" height="410"/>
         <path fill="none" stroke="rgb(0,0,0)" stroke-width="19" stroke-linejoin="round" d="M 10888,15285 L 10888,15674"/>
        </g>
       </g>
       <g class="com.sun.star.drawing.LineShape">
        <g id="id13">
         <rect class="BoundingBox" stroke="none" fill="none" x="9716" y="14892" width="1188" height="408"/>
         <path fill="none" stroke="rgb(0,0,0)" stroke-width="19" stroke-linejoin="round" d="M 10893,15289 L 9726,14902"/>
        </g>
       </g>
       <g class="com.sun.star.drawing.LineShape">
        <g id="id14">
         <rect class="BoundingBox" stroke="none" fill="none" x="10878" y="14892" width="1190" height="408"/>
         <path fill="none" stroke="rgb(0,0,0)" stroke-width="19" stroke-linejoin="round" d="M 12057,15289 L 12031,15281"/>
         <path fill="none" stroke="rgb(0,0,0)" stroke-width="19" stroke-linejoin="round" d="M 12006,15272 L 11980,15264"/>
         <path fill="none" stroke="rgb(0,0,0)" stroke-width="19" stroke-linejoin="round" d="M 11955,15255 L 11929,15247"/>
         <path fill="none" stroke="rgb(0,0,0)" stroke-width="19" stroke-linejoin="round" d="M 11903,15238 L 11878,15230"/>
         <path fill="none" stroke="rgb(0,0,0)" stroke-width="19" stroke-linejoin="round" d="M 11852,15221 L 11827,15213"/>
         <path fill="none" stroke="rgb(0,0,0)" stroke-width="19" stroke-linejoin="round" d="M 11801,15204 L 11776,15196"/>
         <path fill="none" stroke="rgb(0,0,0)" stroke-width="19" stroke-linejoin="round" d="M 11750,15187 L 11724,15179"/>
         <path fill="none" stroke="rgb(0,0,0)" stroke-width="19" stroke-linejoin="round" d="M 11699,15170 L 11673,15162"/>
         <path fill="none" stroke="rgb(0,0,0)" stroke-width="19" stroke-linejoin="round" d="M 11648,15153 L 11622,15145"/>
         <path fill="none" stroke="rgb(0,0,0)" stroke-width="19" stroke-linejoin="round" d="M 11596,15137 L 11571,15128"/>
         <path fill="none" stroke="rgb(0,0,0)" stroke-width="19" stroke-linejoin="round" d="M 11545,15120 L 11520,15111"/>
         <path fill="none" stroke="rgb(0,0,0)" stroke-width="19" stroke-linejoin="round" d="M 11494,15103 L 11469,15094"/>
         <path fill="none" stroke="rgb(0,0,0)" stroke-width="19" stroke-linejoin="round" d="M 11443,15086 L 11417,15077"/>
         <path fill="none" stroke="rgb(0,0,0)" stroke-width="19" stroke-linejoin="round" d="M 11392,15069 L 11366,15060"/>
         <path fill="none" stroke="rgb(0,0,0)" stroke-width="19" stroke-linejoin="round" d="M 11341,15052 L 11315,15043"/>
         <path fill="none" stroke="rgb(0,0,0)" stroke-width="19" stroke-linejoin="round" d="M 11289,15035 L 11264,15026"/>
         <path fill="none" stroke="rgb(0,0,0)" stroke-width="19" stroke-linejoin="round" d="M 11238,15018 L 11213,15009"/>
         <path fill="none" stroke="rgb(0,0,0)" stroke-width="19" stroke-linejoin="round" d="M 11187,15001 L 11162,14993"/>
         <path fill="none" stroke="rgb(0,0,0)" stroke-width="19" stroke-linejoin="round" d="M 11136,14984 L 11110,14976"/>
         <path fill="none" stroke="rgb(0,0,0)" stroke-width="19" stroke-linejoin="round" d="M 11085,14967 L 11059,14959"/>
         <path fill="none" stroke="rgb(0,0,0)" stroke-width="19" stroke-linejoin="round" d="M 11034,14950 L 11008,14942"/>
         <path fill="none" stroke="rgb(0,0,0)" stroke-width="19" stroke-linejoin="round" d="M 10982,14933 L 10957,14925"/>
         <path fill="none" stroke="rgb(0,0,0)" stroke-width="19" stroke-linejoin="round" d="M 10931,14916 L 10906,14908"/>
        </g>
       </g>
       <g class="com.sun.star.drawing.LineShape">
        <g id="id15">
         <rect class="BoundingBox" stroke="none" fill="none" x="9716" y="14892" width="1188" height="408"/>
         <path fill="none" stroke="rgb(0,0,0)" stroke-width="19" stroke-linejoin="round" d="M 9726,15289 L 9752,15281"/>
         <path fill="none" stroke="rgb(0,0,0)" stroke-width="19" stroke-linejoin="round" d="M 9777,15272 L 9803,15264"/>
         <path fill="none" stroke="rgb(0,0,0)" stroke-width="19" stroke-linejoin="round" d="M 9828,15255 L 9854,15247"/>
         <path fill="none" stroke="rgb(0,0,0)" stroke-width="19" stroke-linejoin="round" d="M 9879,15238 L 9905,15230"/>
         <path fill="none" stroke="rgb(0,0,0)" stroke-width="19" stroke-linejoin="round" d="M 9931,15221 L 9956,15213"/>
         <path fill="none" stroke="rgb(0,0,0)" stroke-width="19" stroke-linejoin="round" d="M 9982,15204 L 10007,15196"/>
         <path fill="none" stroke="rgb(0,0,0)" stroke-width="19" stroke-linejoin="round" d="M 10033,15187 L 10059,15179"/>
         <path fill="none" stroke="rgb(0,0,0)" stroke-width="19" stroke-linejoin="round" d="M 10084,15170 L 10110,15162"/>
         <path fill="none" stroke="rgb(0,0,0)" stroke-width="19" stroke-linejoin="round" d="M 10135,15153 L 10161,15145"/>
         <path fill="none" stroke="rgb(0,0,0)" stroke-width="19" stroke-linejoin="round" d="M 10186,15136 L 10212,15128"/>
         <path fill="none" stroke="rgb(0,0,0)" stroke-width="19" stroke-linejoin="round" d="M 10238,15119 L 10263,15111"/>
         <path fill="none" stroke="rgb(0,0,0)" stroke-width="19" stroke-linejoin="round" d="M 10289,15102 L 10314,15094"/>
         <path fill="none" stroke="rgb(0,0,0)" stroke-width="19" stroke-linejoin="round" d="M 10340,15085 L 10366,15077"/>
         <path fill="none" stroke="rgb(0,0,0)" stroke-width="19" stroke-linejoin="round" d="M 10391,15068 L 10417,15060"/>
         <path fill="none" stroke="rgb(0,0,0)" stroke-width="19" stroke-linejoin="round" d="M 10442,15051 L 10468,15043"/>
         <path fill="none" stroke="rgb(0,0,0)" stroke-width="19" stroke-linejoin="round" d="M 10493,15035 L 10519,15026"/>
         <path fill="none" stroke="rgb(0,0,0)" stroke-width="19" stroke-linejoin="round" d="M 10545,15018 L 10570,15009"/>
         <path fill="none" stroke="rgb(0,0,0)" stroke-width="19" stroke-linejoin="round" d="M 10596,15001 L 10621,14992"/>
         <path fill="none" stroke="rgb(0,0,0)" stroke-width="19" stroke-linejoin="round" d="M 10647,14984 L 10672,14975"/>
         <path fill="none" stroke="rgb(0,0,0)" stroke-width="19" stroke-linejoin="round" d="M 10698,14967 L 10724,14958"/>
         <path fill="none" stroke="rgb(0,0,0)" stroke-width="19" stroke-linejoin="round" d="M 10749,14950 L 10775,14941"/>
         <path fill="none" stroke="rgb(0,0,0)" stroke-width="19" stroke-linejoin="round" d="M 10800,14933 L 10826,14924"/>
         <path fill="none" stroke="rgb(0,0,0)" stroke-width="19" stroke-linejoin="round" d="M 10852,14916 L 10877,14907"/>
        </g>
       </g>
      </g>
     </g>
    </g>
   </g>
  </g>
 </g>
</svg>