<?xml version="1.0" encoding="UTF-8"?>
<!DOCTYPE svg PUBLIC "-//W3C//DTD SVG 1.1//EN" "http://www.w3.org/Graphics/SVG/1.1/DTD/svg11.dtd">
<svg version="1.2" width="17.74mm" height="17.76mm" viewBox="10004 14203 1774 1776" preserveAspectRatio="xMidYMid" fill-rule="evenodd" stroke-width="28.222" stroke-linejoin="round" xmlns="http://www.w3.org/2000/svg" xmlns:ooo="http://xml.openoffice.org/svg/export" xmlns:xlink="http://www.w3.org/1999/xlink" xmlns:presentation="http://sun.com/xmlns/staroffice/presentation" xmlns:smil="http://www.w3.org/2001/SMIL20/" xmlns:anim="urn:oasis:names:tc:opendocument:xmlns:animation:1.0" xml:space="preserve">
 <defs class="ClipPathGroup">
  <clipPath id="presentation_clip_path" clipPathUnits="userSpaceOnUse">
   <rect x="10004" y="14203" width="1774" height="1776"/>
  </clipPath>
  <clipPath id="presentation_clip_path_shrink" clipPathUnits="userSpaceOnUse">
   <rect x="10005" y="14204" width="1771" height="1773"/>
  </clipPath>
 </defs>
 <defs class="TextShapeIndex">
  <g ooo:slide="id1" ooo:id-list="id3 id4 id5 id6 id7 id8 id9 id10 id11 id12 id13 id14 id15 id16"/>
 </defs>
 <defs class="EmbeddedBulletChars">
  <g id="bullet-char-template-57356" transform="scale(0.00048828125,-0.00048828125)">
   <path d="M 580,1141 L 1163,571 580,0 -4,571 580,1141 Z"/>
  </g>
  <g id="bullet-char-template-57354" transform="scale(0.00048828125,-0.00048828125)">
   <path d="M 8,1128 L 1137,1128 1137,0 8,0 8,1128 Z"/>
  </g>
  <g id="bullet-char-template-10146" transform="scale(0.00048828125,-0.00048828125)">
   <path d="M 174,0 L 602,739 174,1481 1456,739 174,0 Z M 1358,739 L 309,1346 659,739 1358,739 Z"/>
  </g>
  <g id="bullet-char-template-10132" transform="scale(0.00048828125,-0.00048828125)">
   <path d="M 2015,739 L 1276,0 717,0 1260,543 174,543 174,936 1260,936 717,1481 1274,1481 2015,739 Z"/>
  </g>
  <g id="bullet-char-template-10007" transform="scale(0.00048828125,-0.00048828125)">
   <path d="M 0,-2 C -7,14 -16,27 -25,37 L 356,567 C 262,823 215,952 215,954 215,979 228,992 255,992 264,992 276,990 289,987 310,991 331,999 354,1012 L 381,999 492,748 772,1049 836,1024 860,1049 C 881,1039 901,1025 922,1006 886,937 835,863 770,784 769,783 710,716 594,584 L 774,223 C 774,196 753,168 711,139 L 727,119 C 717,90 699,76 672,76 641,76 570,178 457,381 L 164,-76 C 142,-110 111,-127 72,-127 30,-127 9,-110 8,-76 1,-67 -2,-52 -2,-32 -2,-23 -1,-13 0,-2 Z"/>
  </g>
  <g id="bullet-char-template-10004" transform="scale(0.00048828125,-0.00048828125)">
   <path d="M 285,-33 C 182,-33 111,30 74,156 52,228 41,333 41,471 41,549 55,616 82,672 116,743 169,778 240,778 293,778 328,747 346,684 L 369,508 C 377,444 397,411 428,410 L 1163,1116 C 1174,1127 1196,1133 1229,1133 1271,1133 1292,1118 1292,1087 L 1292,965 C 1292,929 1282,901 1262,881 L 442,47 C 390,-6 338,-33 285,-33 Z"/>
  </g>
  <g id="bullet-char-template-9679" transform="scale(0.00048828125,-0.00048828125)">
   <path d="M 813,0 C 632,0 489,54 383,161 276,268 223,411 223,592 223,773 276,916 383,1023 489,1130 632,1184 813,1184 992,1184 1136,1130 1245,1023 1353,916 1407,772 1407,592 1407,412 1353,268 1245,161 1136,54 992,0 813,0 Z"/>
  </g>
  <g id="bullet-char-template-8226" transform="scale(0.00048828125,-0.00048828125)">
   <path d="M 346,457 C 273,457 209,483 155,535 101,586 74,649 74,723 74,796 101,859 155,911 209,963 273,989 346,989 419,989 480,963 531,910 582,859 608,796 608,723 608,648 583,586 532,535 482,483 420,457 346,457 Z"/>
  </g>
  <g id="bullet-char-template-8211" transform="scale(0.00048828125,-0.00048828125)">
   <path d="M -4,459 L 1135,459 1135,606 -4,606 -4,459 Z"/>
  </g>
  <g id="bullet-char-template-61548" transform="scale(0.00048828125,-0.00048828125)">
   <path d="M 173,740 C 173,903 231,1043 346,1159 462,1274 601,1332 765,1332 928,1332 1067,1274 1183,1159 1299,1043 1357,903 1357,740 1357,577 1299,437 1183,322 1067,206 928,148 765,148 601,148 462,206 346,322 231,437 173,577 173,740 Z"/>
  </g>
 </defs>
 <defs class="TextEmbeddedBitmaps"/>
 <g class="SlideGroup">
  <g>
   <g id="container-id1">
    <g id="id1" class="Slide" clip-path="url(#presentation_clip_path)">
     <g class="Page">
      <g class="Group">
       <g class="com.sun.star.drawing.PolyPolygonShape">
        <g id="id3">
         <rect class="BoundingBox" stroke="none" fill="none" x="10013" y="15267" width="1757" height="704"/>
        </g>
       </g>
       <g class="com.sun.star.drawing.PolyPolygonShape">
        <g id="id4">
         <rect class="BoundingBox" stroke="none" fill="none" x="10004" y="14203" width="1776" height="1776"/>
         <path fill="rgb(0,152,204)" fill-opacity="0.2" stroke="rgb(255,255,255)" stroke-opacity="0.2" d="M 10014,14916 L 11066,14213 11769,14564 11769,15616 10014,15968 10014,14916 Z"/>
         <path fill="none" stroke="rgb(0,0,0)" stroke-width="19" stroke-linejoin="round" d="M 10014,14916 L 11066,14213 11769,14564 11769,15616 10014,15968 10014,14916 Z"/>
        </g>
       </g>
       <g class="com.sun.star.drawing.PolyPolygonShape">
        <g id="id5">
         <rect class="BoundingBox" stroke="none" fill="none" x="10004" y="15257" width="1776" height="724"/>
         <path fill="none" stroke="rgb(0,0,0)" stroke-width="19" stroke-linejoin="round" d="M 10014,15970 L 10037,15954"/>
         <path fill="none" stroke="rgb(0,0,0)" stroke-width="19" stroke-linejoin="round" d="M 10061,15939 L 10084,15923"/>
         <path fill="none" stroke="rgb(0,0,0)" stroke-width="19" stroke-linejoin="round" d="M 10107,15908 L 10130,15892"/>
         <path fill="none" stroke="rgb(0,0,0)" stroke-width="19" stroke-linejoin="round" d="M 10154,15877 L 10177,15861"/>
         <path fill="none" stroke="rgb(0,0,0)" stroke-width="19" stroke-linejoin="round" d="M 10200,15846 L 10224,15830"/>
         <path fill="none" stroke="rgb(0,0,0)" stroke-width="19" stroke-linejoin="round" d="M 10247,15814 L 10270,15799"/>
         <path fill="none" stroke="rgb(0,0,0)" stroke-width="19" stroke-linejoin="round" d="M 10293,15783 L 10317,15768"/>
         <path fill="none" stroke="rgb(0,0,0)" stroke-width="19" stroke-linejoin="round" d="M 10340,15752 L 10363,15737"/>
         <path fill="none" stroke="rgb(0,0,0)" stroke-width="19" stroke-linejoin="round" d="M 10386,15721 L 10410,15706"/>
         <path fill="none" stroke="rgb(0,0,0)" stroke-width="19" stroke-linejoin="round" d="M 10433,15690 L 10456,15674"/>
         <path fill="none" stroke="rgb(0,0,0)" stroke-width="19" stroke-linejoin="round" d="M 10480,15659 L 10503,15643"/>
         <path fill="none" stroke="rgb(0,0,0)" stroke-width="19" stroke-linejoin="round" d="M 10526,15628 L 10549,15612"/>
         <path fill="none" stroke="rgb(0,0,0)" stroke-width="19" stroke-linejoin="round" d="M 10573,15597 L 10596,15581"/>
         <path fill="none" stroke="rgb(0,0,0)" stroke-width="19" stroke-linejoin="round" d="M 10619,15566 L 10643,15550"/>
         <path fill="none" stroke="rgb(0,0,0)" stroke-width="19" stroke-linejoin="round" d="M 10666,15534 L 10689,15519"/>
         <path fill="none" stroke="rgb(0,0,0)" stroke-width="19" stroke-linejoin="round" d="M 10712,15503 L 10736,15488"/>
         <path fill="none" stroke="rgb(0,0,0)" stroke-width="19" stroke-linejoin="round" d="M 10759,15472 L 10782,15457"/>
         <path fill="none" stroke="rgb(0,0,0)" stroke-width="19" stroke-linejoin="round" d="M 10806,15441 L 10829,15426"/>
         <path fill="none" stroke="rgb(0,0,0)" stroke-width="19" stroke-linejoin="round" d="M 10852,15410 L 10875,15394"/>
         <path fill="none" stroke="rgb(0,0,0)" stroke-width="19" stroke-linejoin="round" d="M 10899,15379 L 10922,15363"/>
         <path fill="none" stroke="rgb(0,0,0)" stroke-width="19" stroke-linejoin="round" d="M 10945,15348 L 10968,15332"/>
         <path fill="none" stroke="rgb(0,0,0)" stroke-width="19" stroke-linejoin="round" d="M 10992,15317 L 11015,15301"/>
         <path fill="none" stroke="rgb(0,0,0)" stroke-width="19" stroke-linejoin="round" d="M 11038,15285 L 11062,15270"/>
         <path fill="none" stroke="rgb(0,0,0)" stroke-width="19" stroke-linejoin="round" d="M 11086,15277 L 11111,15290"/>
         <path fill="none" stroke="rgb(0,0,0)" stroke-width="19" stroke-linejoin="round" d="M 11136,15302 L 11161,15315"/>
         <path fill="none" stroke="rgb(0,0,0)" stroke-width="19" stroke-linejoin="round" d="M 11187,15327 L 11212,15340"/>
         <path fill="none" stroke="rgb(0,0,0)" stroke-width="19" stroke-linejoin="round" d="M 11237,15352 L 11262,15365"/>
         <path fill="none" stroke="rgb(0,0,0)" stroke-width="19" stroke-linejoin="round" d="M 11287,15377 L 11312,15390"/>
         <path fill="none" stroke="rgb(0,0,0)" stroke-width="19" stroke-linejoin="round" d="M 11337,15402 L 11362,15415"/>
         <path fill="none" stroke="rgb(0,0,0)" stroke-width="19" stroke-linejoin="round" d="M 11387,15427 L 11412,15440"/>
         <path fill="none" stroke="rgb(0,0,0)" stroke-width="19" stroke-linejoin="round" d="M 11437,15452 L 11462,15465"/>
         <path fill="none" stroke="rgb(0,0,0)" stroke-width="19" stroke-linejoin="round" d="M 11487,15477 L 11512,15490"/>
         <path fill="none" stroke="rgb(0,0,0)" stroke-width="19" stroke-linejoin="round" d="M 11537,15502 L 11562,15515"/>
         <path fill="none" stroke="rgb(0,0,0)" stroke-width="19" stroke-linejoin="round" d="M 11587,15527 L 11612,15540"/>
         <path fill="none" stroke="rgb(0,0,0)" stroke-width="19" stroke-linejoin="round" d="M 11637,15552 L 11663,15565"/>
         <path fill="none" stroke="rgb(0,0,0)" stroke-width="19" stroke-linejoin="round" d="M 11688,15577 L 11713,15590"/>
         <path fill="none" stroke="rgb(0,0,0)" stroke-width="19" stroke-linejoin="round" d="M 11738,15602 L 11763,15615"/>
         <path fill="none" stroke="rgb(0,0,0)" stroke-width="19" stroke-linejoin="round" d="M 11748,15622 L 11721,15628"/>
         <path fill="none" stroke="rgb(0,0,0)" stroke-width="19" stroke-linejoin="round" d="M 11694,15633 L 11666,15639"/>
         <path fill="none" stroke="rgb(0,0,0)" stroke-width="19" stroke-linejoin="round" d="M 11639,15644 L 11611,15650"/>
         <path fill="none" stroke="rgb(0,0,0)" stroke-width="19" stroke-linejoin="round" d="M 11584,15655 L 11556,15661"/>
         <path fill="none" stroke="rgb(0,0,0)" stroke-width="19" stroke-linejoin="round" d="M 11529,15666 L 11501,15672"/>
         <path fill="none" stroke="rgb(0,0,0)" stroke-width="19" stroke-linejoin="round" d="M 11474,15677 L 11446,15683"/>
         <path fill="none" stroke="rgb(0,0,0)" stroke-width="19" stroke-linejoin="round" d="M 11419,15688 L 11392,15694"/>
         <path fill="none" stroke="rgb(0,0,0)" stroke-width="19" stroke-linejoin="round" d="M 11364,15699 L 11337,15705"/>
         <path fill="none" stroke="rgb(0,0,0)" stroke-width="19" stroke-linejoin="round" d="M 11309,15710 L 11282,15716"/>
         <path fill="none" stroke="rgb(0,0,0)" stroke-width="19" stroke-linejoin="round" d="M 11254,15721 L 11227,15727"/>
         <path fill="none" stroke="rgb(0,0,0)" stroke-width="19" stroke-linejoin="round" d="M 11199,15732 L 11172,15738"/>
         <path fill="none" stroke="rgb(0,0,0)" stroke-width="19" stroke-linejoin="round" d="M 11144,15743 L 11117,15749"/>
         <path fill="none" stroke="rgb(0,0,0)" stroke-width="19" stroke-linejoin="round" d="M 11090,15754 L 11062,15760"/>
         <path fill="none" stroke="rgb(0,0,0)" stroke-width="19" stroke-linejoin="round" d="M 11035,15765 L 11007,15771"/>
         <path fill="none" stroke="rgb(0,0,0)" stroke-width="19" stroke-linejoin="round" d="M 10980,15776 L 10952,15782"/>
         <path fill="none" stroke="rgb(0,0,0)" stroke-width="19" stroke-linejoin="round" d="M 10925,15787 L 10897,15793"/>
         <path fill="none" stroke="rgb(0,0,0)" stroke-width="19" stroke-linejoin="round" d="M 10870,15798 L 10842,15804"/>
         <path fill="none" stroke="rgb(0,0,0)" stroke-width="19" stroke-linejoin="round" d="M 10815,15809 L 10788,15815"/>
         <path fill="none" stroke="rgb(0,0,0)" stroke-width="19" stroke-linejoin="round" d="M 10760,15820 L 10733,15826"/>
         <path fill="none" stroke="rgb(0,0,0)" stroke-width="19" stroke-linejoin="round" d="M 10705,15831 L 10678,15837"/>
         <path fill="none" stroke="rgb(0,0,0)" stroke-width="19" stroke-linejoin="round" d="M 10650,15842 L 10623,15848"/>
         <path fill="none" stroke="rgb(0,0,0)" stroke-width="19" stroke-linejoin="round" d="M 10595,15853 L 10568,15859"/>
         <path fill="none" stroke="rgb(0,0,0)" stroke-width="19" stroke-linejoin="round" d="M 10540,15864 L 10513,15870"/>
         <path fill="none" stroke="rgb(0,0,0)" stroke-width="19" stroke-linejoin="round" d="M 10486,15875 L 10458,15881"/>
         <path fill="none" stroke="rgb(0,0,0)" stroke-width="19" stroke-linejoin="round" d="M 10431,15886 L 10403,15892"/>
         <path fill="none" stroke="rgb(0,0,0)" stroke-width="19" stroke-linejoin="round" d="M 10376,15897 L 10348,15903"/>
         <path fill="none" stroke="rgb(0,0,0)" stroke-width="19" stroke-linejoin="round" d="M 10321,15908 L 10293,15914"/>
         <path fill="none" stroke="rgb(0,0,0)" stroke-width="19" stroke-linejoin="round" d="M 10266,15919 L 10239,15925"/>
         <path fill="none" stroke="rgb(0,0,0)" stroke-width="19" stroke-linejoin="round" d="M 10211,15930 L 10184,15936"/>
         <path fill="none" stroke="rgb(0,0,0)" stroke-width="19" stroke-linejoin="round" d="M 10156,15941 L 10129,15947"/>
         <path fill="none" stroke="rgb(0,0,0)" stroke-width="19" stroke-linejoin="round" d="M 10101,15953 L 10074,15958"/>
         <path fill="none" stroke="rgb(0,0,0)" stroke-width="19" stroke-linejoin="round" d="M 10046,15964 L 10019,15969"/>
        </g>
       </g>
       <g class="com.sun.star.drawing.PolyPolygonShape">
        <g id="id6">
         <rect class="BoundingBox" stroke="none" fill="none" x="10004" y="15257" width="1776" height="724"/>
         <path fill="rgb(0,152,204)" stroke="none" d="M 10014,15970 L 11066,15267 11769,15618 10014,15970 Z"/>
         <path fill="none" stroke="rgb(0,0,0)" stroke-width="19" stroke-linejoin="round" d="M 10014,15970 L 10037,15954"/>
         <path fill="none" stroke="rgb(0,0,0)" stroke-width="19" stroke-linejoin="round" d="M 10061,15939 L 10084,15923"/>
         <path fill="none" stroke="rgb(0,0,0)" stroke-width="19" stroke-linejoin="round" d="M 10107,15908 L 10130,15892"/>
         <path fill="none" stroke="rgb(0,0,0)" stroke-width="19" stroke-linejoin="round" d="M 10154,15877 L 10177,15861"/>
         <path fill="none" stroke="rgb(0,0,0)" stroke-width="19" stroke-linejoin="round" d="M 10200,15846 L 10224,15830"/>
         <path fill="none" stroke="rgb(0,0,0)" stroke-width="19" stroke-linejoin="round" d="M 10247,15814 L 10270,15799"/>
         <path fill="none" stroke="rgb(0,0,0)" stroke-width="19" stroke-linejoin="round" d="M 10293,15783 L 10317,15768"/>
         <path fill="none" stroke="rgb(0,0,0)" stroke-width="19" stroke-linejoin="round" d="M 10340,15752 L 10363,15737"/>
         <path fill="none" stroke="rgb(0,0,0)" stroke-width="19" stroke-linejoin="round" d="M 10386,15721 L 10410,15706"/>
         <path fill="none" stroke="rgb(0,0,0)" stroke-width="19" stroke-linejoin="round" d="M 10433,15690 L 10456,15674"/>
         <path fill="none" stroke="rgb(0,0,0)" stroke-width="19" stroke-linejoin="round" d="M 10480,15659 L 10503,15643"/>
         <path fill="none" stroke="rgb(0,0,0)" stroke-width="19" stroke-linejoin="round" d="M 10526,15628 L 10549,15612"/>
         <path fill="none" stroke="rgb(0,0,0)" stroke-width="19" stroke-linejoin="round" d="M 10573,15597 L 10596,15581"/>
         <path fill="none" stroke="rgb(0,0,0)" stroke-width="19" stroke-linejoin="round" d="M 10619,15566 L 10643,15550"/>
         <path fill="none" stroke="rgb(0,0,0)" stroke-width="19" stroke-linejoin="round" d="M 10666,15534 L 10689,15519"/>
         <path fill="none" stroke="rgb(0,0,0)" stroke-width="19" stroke-linejoin="round" d="M 10712,15503 L 10736,15488"/>
         <path fill="none" stroke="rgb(0,0,0)" stroke-width="19" stroke-linejoin="round" d="M 10759,15472 L 10782,15457"/>
         <path fill="none" stroke="rgb(0,0,0)" stroke-width="19" stroke-linejoin="round" d="M 10806,15441 L 10829,15426"/>
         <path fill="none" stroke="rgb(0,0,0)" stroke-width="19" stroke-linejoin="round" d="M 10852,15410 L 10875,15394"/>
         <path fill="none" stroke="rgb(0,0,0)" stroke-width="19" stroke-linejoin="round" d="M 10899,15379 L 10922,15363"/>
         <path fill="none" stroke="rgb(0,0,0)" stroke-width="19" stroke-linejoin="round" d="M 10945,15348 L 10968,15332"/>
         <path fill="none" stroke="rgb(0,0,0)" stroke-width="19" stroke-linejoin="round" d="M 10992,15317 L 11015,15301"/>
         <path fill="none" stroke="rgb(0,0,0)" stroke-width="19" stroke-linejoin="round" d="M 11038,15285 L 11062,15270"/>
         <path fill="none" stroke="rgb(0,0,0)" stroke-width="19" stroke-linejoin="round" d="M 11086,15277 L 11111,15290"/>
         <path fill="none" stroke="rgb(0,0,0)" stroke-width="19" stroke-linejoin="round" d="M 11136,15302 L 11161,15315"/>
         <path fill="none" stroke="rgb(0,0,0)" stroke-width="19" stroke-linejoin="round" d="M 11187,15327 L 11212,15340"/>
         <path fill="none" stroke="rgb(0,0,0)" stroke-width="19" stroke-linejoin="round" d="M 11237,15352 L 11262,15365"/>
         <path fill="none" stroke="rgb(0,0,0)" stroke-width="19" stroke-linejoin="round" d="M 11287,15377 L 11312,15390"/>
         <path fill="none" stroke="rgb(0,0,0)" stroke-width="19" stroke-linejoin="round" d="M 11337,15402 L 11362,15415"/>
         <path fill="none" stroke="rgb(0,0,0)" stroke-width="19" stroke-linejoin="round" d="M 11387,15427 L 11412,15440"/>
         <path fill="none" stroke="rgb(0,0,0)" stroke-width="19" stroke-linejoin="round" d="M 11437,15452 L 11462,15465"/>
         <path fill="none" stroke="rgb(0,0,0)" stroke-width="19" stroke-linejoin="round" d="M 11487,15477 L 11512,15490"/>
         <path fill="none" stroke="rgb(0,0,0)" stroke-width="19" stroke-linejoin="round" d="M 11537,15502 L 11562,15515"/>
         <path fill="none" stroke="rgb(0,0,0)" stroke-width="19" stroke-linejoin="round" d="M 11587,15527 L 11612,15540"/>
         <path fill="none" stroke="rgb(0,0,0)" stroke-width="19" stroke-linejoin="round" d="M 11637,15552 L 11663,15565"/>
         <path fill="none" stroke="rgb(0,0,0)" stroke-width="19" stroke-linejoin="round" d="M 11688,15577 L 11713,15590"/>
         <path fill="none" stroke="rgb(0,0,0)" stroke-width="19" stroke-linejoin="round" d="M 11738,15602 L 11763,15615"/>
         <path fill="none" stroke="rgb(0,0,0)" stroke-width="19" stroke-linejoin="round" d="M 11748,15622 L 11721,15628"/>
         <path fill="none" stroke="rgb(0,0,0)" stroke-width="19" stroke-linejoin="round" d="M 11694,15633 L 11666,15639"/>
         <path fill="none" stroke="rgb(0,0,0)" stroke-width="19" stroke-linejoin="round" d="M 11639,15644 L 11611,15650"/>
         <path fill="none" stroke="rgb(0,0,0)" stroke-width="19" stroke-linejoin="round" d="M 11584,15655 L 11556,15661"/>
         <path fill="none" stroke="rgb(0,0,0)" stroke-width="19" stroke-linejoin="round" d="M 11529,15666 L 11501,15672"/>
         <path fill="none" stroke="rgb(0,0,0)" stroke-width="19" stroke-linejoin="round" d="M 11474,15677 L 11446,15683"/>
         <path fill="none" stroke="rgb(0,0,0)" stroke-width="19" stroke-linejoin="round" d="M 11419,15688 L 11392,15694"/>
         <path fill="none" stroke="rgb(0,0,0)" stroke-width="19" stroke-linejoin="round" d="M 11364,15699 L 11337,15705"/>
         <path fill="none" stroke="rgb(0,0,0)" stroke-width="19" stroke-linejoin="round" d="M 11309,15710 L 11282,15716"/>
         <path fill="none" stroke="rgb(0,0,0)" stroke-width="19" stroke-linejoin="round" d="M 11254,15721 L 11227,15727"/>
         <path fill="none" stroke="rgb(0,0,0)" stroke-width="19" stroke-linejoin="round" d="M 11199,15732 L 11172,15738"/>
         <path fill="none" stroke="rgb(0,0,0)" stroke-width="19" stroke-linejoin="round" d="M 11144,15743 L 11117,15749"/>
         <path fill="none" stroke="rgb(0,0,0)" stroke-width="19" stroke-linejoin="round" d="M 11090,15754 L 11062,15760"/>
         <path fill="none" stroke="rgb(0,0,0)" stroke-width="19" stroke-linejoin="round" d="M 11035,15765 L 11007,15771"/>
         <path fill="none" stroke="rgb(0,0,0)" stroke-width="19" stroke-linejoin="round" d="M 10980,15776 L 10952,15782"/>
         <path fill="none" stroke="rgb(0,0,0)" stroke-width="19" stroke-linejoin="round" d="M 10925,15787 L 10897,15793"/>
         <path fill="none" stroke="rgb(0,0,0)" stroke-width="19" stroke-linejoin="round" d="M 10870,15798 L 10842,15804"/>
         <path fill="none" stroke="rgb(0,0,0)" stroke-width="19" stroke-linejoin="round" d="M 10815,15809 L 10788,15815"/>
         <path fill="none" stroke="rgb(0,0,0)" stroke-width="19" stroke-linejoin="round" d="M 10760,15820 L 10733,15826"/>
         <path fill="none" stroke="rgb(0,0,0)" stroke-width="19" stroke-linejoin="round" d="M 10705,15831 L 10678,15837"/>
         <path fill="none" stroke="rgb(0,0,0)" stroke-width="19" stroke-linejoin="round" d="M 10650,15842 L 10623,15848"/>
         <path fill="none" stroke="rgb(0,0,0)" stroke-width="19" stroke-linejoin="round" d="M 10595,15853 L 10568,15859"/>
         <path fill="none" stroke="rgb(0,0,0)" stroke-width="19" stroke-linejoin="round" d="M 10540,15864 L 10513,15870"/>
         <path fill="none" stroke="rgb(0,0,0)" stroke-width="19" stroke-linejoin="round" d="M 10486,15875 L 10458,15881"/>
         <path fill="none" stroke="rgb(0,0,0)" stroke-width="19" stroke-linejoin="round" d="M 10431,15886 L 10403,15892"/>
         <path fill="none" stroke="rgb(0,0,0)" stroke-width="19" stroke-linejoin="round" d="M 10376,15897 L 10348,15903"/>
         <path fill="none" stroke="rgb(0,0,0)" stroke-width="19" stroke-linejoin="round" d="M 10321,15908 L 10293,15914"/>
         <path fill="none" stroke="rgb(0,0,0)" stroke-width="19" stroke-linejoin="round" d="M 10266,15919 L 10239,15925"/>
         <path fill="none" stroke="rgb(0,0,0)" stroke-width="19" stroke-linejoin="round" d="M 10211,15930 L 10184,15936"/>
         <path fill="none" stroke="rgb(0,0,0)" stroke-width="19" stroke-linejoin="round" d="M 10156,15941 L 10129,15947"/>
         <path fill="none" stroke="rgb(0,0,0)" stroke-width="19" stroke-linejoin="round" d="M 10101,15953 L 10074,15958"/>
         <path fill="none" stroke="rgb(0,0,0)" stroke-width="19" stroke-linejoin="round" d="M 10046,15964 L 10019,15969"/>
        </g>
       </g>
       <g class="com.sun.star.drawing.LineShape">
        <g id="id7">
         <rect class="BoundingBox" stroke="none" fill="none" x="11758" y="14555" width="21" height="1073"/>
         <path fill="none" stroke="rgb(0,0,0)" stroke-width="19" stroke-linejoin="round" d="M 11768,14565 L 11768,15617"/>
        </g>
       </g>
       <g class="com.sun.star.drawing.LineShape">
        <g id="id8">
         <rect class="BoundingBox" stroke="none" fill="none" x="10004" y="14906" width="21" height="1073"/>
         <path fill="none" stroke="rgb(0,0,0)" stroke-width="19" stroke-linejoin="round" d="M 10014,14916 L 10014,15968"/>
        </g>
       </g>
       <g class="com.sun.star.drawing.PolyPolygonShape">
        <g id="id9">
         <rect class="BoundingBox" stroke="none" fill="none" x="10004" y="14203" width="1776" height="724"/>
         <path fill="rgb(35,184,220)" stroke="none" d="M 10014,14916 L 11066,14213 11769,14564 10014,14916 Z"/>
         <path fill="none" stroke="rgb(0,0,0)" stroke-width="19" stroke-linejoin="round" d="M 10014,14916 L 11066,14213 11769,14564 10014,14916 Z"/>
        </g>
       </g>
       <g class="com.sun.star.drawing.LineShape">
        <g id="id10">
         <rect class="BoundingBox" stroke="none" fill="none" x="11056" y="14203" width="21" height="1073"/>
         <path fill="none" stroke="rgb(0,0,0)" stroke-width="19" stroke-linejoin="round" d="M 11066,14213 L 11066,14241"/>
         <path fill="none" stroke="rgb(0,0,0)" stroke-width="19" stroke-linejoin="round" d="M 11066,14269 L 11066,14297"/>
         <path fill="none" stroke="rgb(0,0,0)" stroke-width="19" stroke-linejoin="round" d="M 11066,14325 L 11066,14353"/>
         <path fill="none" stroke="rgb(0,0,0)" stroke-width="19" stroke-linejoin="round" d="M 11066,14381 L 11066,14409"/>
         <path fill="none" stroke="rgb(0,0,0)" stroke-width="19" stroke-linejoin="round" d="M 11066,14437 L 11066,14465"/>
         <path fill="none" stroke="rgb(0,0,0)" stroke-width="19" stroke-linejoin="round" d="M 11066,14493 L 11066,14521"/>
         <path fill="none" stroke="rgb(0,0,0)" stroke-width="19" stroke-linejoin="round" d="M 11066,14549 L 11066,14577"/>
         <path fill="none" stroke="rgb(0,0,0)" stroke-width="19" stroke-linejoin="round" d="M 11066,14605 L 11066,14633"/>
         <path fill="none" stroke="rgb(0,0,0)" stroke-width="19" stroke-linejoin="round" d="M 11066,14661 L 11066,14689"/>
         <path fill="none" stroke="rgb(0,0,0)" stroke-width="19" stroke-linejoin="round" d="M 11066,14717 L 11066,14745"/>
         <path fill="none" stroke="rgb(0,0,0)" stroke-width="19" stroke-linejoin="round" d="M 11066,14773 L 11066,14801"/>
         <path fill="none" stroke="rgb(0,0,0)" stroke-width="19" stroke-linejoin="round" d="M 11066,14829 L 11066,14857"/>
         <path fill="none" stroke="rgb(0,0,0)" stroke-width="19" stroke-linejoin="round" d="M 11066,14885 L 11066,14913"/>
         <path fill="none" stroke="rgb(0,0,0)" stroke-width="19" stroke-linejoin="round" d="M 11066,14941 L 11066,14969"/>
         <path fill="none" stroke="rgb(0,0,0)" stroke-width="19" stroke-linejoin="round" d="M 11066,14997 L 11066,15025"/>
         <path fill="none" stroke="rgb(0,0,0)" stroke-width="19" stroke-linejoin="round" d="M 11066,15053 L 11066,15081"/>
         <path fill="none" stroke="rgb(0,0,0)" stroke-width="19" stroke-linejoin="round" d="M 11066,15109 L 11066,15137"/>
         <path fill="none" stroke="rgb(0,0,0)" stroke-width="19" stroke-linejoin="round" d="M 11066,15165 L 11066,15193"/>
         <path fill="none" stroke="rgb(0,0,0)" stroke-width="19" stroke-linejoin="round" d="M 11066,15221 L 11066,15249"/>
        </g>
       </g>
       <g class="com.sun.star.drawing.LineShape">
        <g id="id11">
         <rect class="BoundingBox" stroke="none" fill="none" x="10004" y="15609" width="1776" height="372"/>
         <path fill="none" stroke="rgb(0,0,0)" stroke-width="19" stroke-linejoin="round" d="M 10014,15970 L 11769,15619"/>
        </g>
       </g>
       <g class="com.sun.star.drawing.LineShape">
        <g id="id12">
         <rect class="BoundingBox" stroke="none" fill="none" x="11758" y="14555" width="21" height="1073"/>
         <path fill="none" stroke="rgb(0,0,0)" stroke-width="19" stroke-linejoin="round" d="M 11768,14565 L 11768,15617"/>
        </g>
       </g>
       <g class="com.sun.star.drawing.LineShape">
        <g id="id13">
         <rect class="BoundingBox" stroke="none" fill="none" x="10004" y="14906" width="21" height="1073"/>
         <path fill="none" stroke="rgb(0,0,0)" stroke-width="19" stroke-linejoin="round" d="M 10014,14916 L 10014,15968"/>
        </g>
       </g>
       <g class="com.sun.star.drawing.PolyPolygonShape">
        <g id="id14">
         <rect class="BoundingBox" stroke="none" fill="none" x="10004" y="14203" width="1776" height="724"/>
         <path fill="rgb(0,152,204)" stroke="none" d="M 10014,14916 L 11066,14213 11769,14564 10014,14916 Z"/>
         <path fill="none" stroke="rgb(0,0,0)" stroke-width="19" stroke-linejoin="round" d="M 10014,14916 L 11066,14213 11769,14564 10014,14916 Z"/>
        </g>
       </g>
       <g class="com.sun.star.drawing.LineShape">
        <g id="id15">
         <rect class="BoundingBox" stroke="none" fill="none" x="11056" y="14203" width="21" height="1073"/>
         <path fill="none" stroke="rgb(0,0,0)" stroke-width="19" stroke-linejoin="round" d="M 11066,14213 L 11066,14241"/>
         <path fill="none" stroke="rgb(0,0,0)" stroke-width="19" stroke-linejoin="round" d="M 11066,14269 L 11066,14297"/>
         <path fill="none" stroke="rgb(0,0,0)" stroke-width="19" stroke-linejoin="round" d="M 11066,14325 L 11066,14353"/>
         <path fill="none" stroke="rgb(0,0,0)" stroke-width="19" stroke-linejoin="round" d="M 11066,14381 L 11066,14409"/>
         <path fill="none" stroke="rgb(0,0,0)" stroke-width="19" stroke-linejoin="round" d="M 11066,14437 L 11066,14465"/>
         <path fill="none" stroke="rgb(0,0,0)" stroke-width="19" stroke-linejoin="round" d="M 11066,14493 L 11066,14521"/>
         <path fill="none" stroke="rgb(0,0,0)" stroke-width="19" stroke-linejoin="round" d="M 11066,14549 L 11066,14577"/>
         <path fill="none" stroke="rgb(0,0,0)" stroke-width="19" stroke-linejoin="round" d="M 11066,14605 L 11066,14633"/>
         <path fill="none" stroke="rgb(0,0,0)" stroke-width="19" stroke-linejoin="round" d="M 11066,14661 L 11066,14689"/>
         <path fill="none" stroke="rgb(0,0,0)" stroke-width="19" stroke-linejoin="round" d="M 11066,14717 L 11066,14745"/>
         <path fill="none" stroke="rgb(0,0,0)" stroke-width="19" stroke-linejoin="round" d="M 11066,14773 L 11066,14801"/>
         <path fill="none" stroke="rgb(0,0,0)" stroke-width="19" stroke-linejoin="round" d="M 11066,14829 L 11066,14857"/>
         <path fill="none" stroke="rgb(0,0,0)" stroke-width="19" stroke-linejoin="round" d="M 11066,14885 L 11066,14913"/>
         <path fill="none" stroke="rgb(0,0,0)" stroke-width="19" stroke-linejoin="round" d="M 11066,14941 L 11066,14969"/>
         <path fill="none" stroke="rgb(0,0,0)" stroke-width="19" stroke-linejoin="round" d="M 11066,14997 L 11066,15025"/>
         <path fill="none" stroke="rgb(0,0,0)" stroke-width="19" stroke-linejoin="round" d="M 11066,15053 L 11066,15081"/>
         <path fill="none" stroke="rgb(0,0,0)" stroke-width="19" stroke-linejoin="round" d="M 11066,15109 L 11066,15137"/>
         <path fill="none" stroke="rgb(0,0,0)" stroke-width="19" stroke-linejoin="round" d="M 11066,15165 L 11066,15193"/>
         <path fill="none" stroke="rgb(0,0,0)" stroke-width="19" stroke-linejoin="round" d="M 11066,15221 L 11066,15249"/>
        </g>
       </g>
       <g class="com.sun.star.drawing.LineShape">
        <g id="id16">
         <rect class="BoundingBox" stroke="none" fill="none" x="10004" y="15609" width="1776" height="372"/>
         <path fill="none" stroke="rgb(0,0,0)" stroke-width="19" stroke-linejoin="round" d="M 10014,15970 L 11769,15619"/>
        </g>
       </g>
      </g>
     </g>
    </g>
   </g>
  </g>
 </g>
</svg>